<?xml version="1.0" encoding="UTF-8"?>
<svg width="800" height="600" viewBox="0 0 800 600" fill="none" xmlns="http://www.w3.org/2000/svg">
  <defs>
    <linearGradient id="g" x1="0" y1="0" x2="1" y2="1">
      <stop offset="0" stop-color="#0B0F0E"/>
      <stop offset="1" stop-color="#101826"/>
    </linearGradient>
    <linearGradient id="a" x1="0" y1="0" x2="1" y2="0">
      <stop offset="0" stop-color="#22C55E"/>
      <stop offset="0.5" stop-color="#F97316"/>
      <stop offset="1" stop-color="#FACC15"/>
    </linearGradient>
  </defs>
  <rect width="800" height="600" rx="36" fill="url(#g)"/>
  <circle cx="620" cy="170" r="190" fill="#22C55E" opacity="0.10"/>
  <circle cx="240" cy="430" r="240" fill="#F97316" opacity="0.09"/>

  <g transform="translate(140 140)">
    <rect x="0" y="0" width="520" height="320" rx="28" fill="#0B1220" stroke="#334155"/>
    <rect x="22" y="22" width="476" height="56" rx="20" fill="#0F1A17"/>
    <path d="M58 50H462" stroke="url(#a)" stroke-width="8" stroke-linecap="round"/>

    <g transform="translate(22 100)">
      <rect x="0" y="0" width="476" height="198" rx="24" fill="#0F1A17"/>
      <path d="M238 12V186" stroke="#334155" stroke-opacity="0.65" stroke-width="2"/>
      <path d="M12 99H464" stroke="#334155" stroke-opacity="0.65" stroke-width="2"/>

      <circle cx="119" cy="54" r="34" fill="#111827"/>
      <circle cx="119" cy="54" r="18" fill="#22C55E"/>

      <path d="M300 44H440" stroke="#FACC15" stroke-width="10" stroke-linecap="round" opacity="0.75"/>

      <path d="M46 142H196" stroke="#F97316" stroke-width="10" stroke-linecap="round" opacity="0.6"/>
      <path d="M300 154H420" stroke="#22C55E" stroke-width="10" stroke-linecap="round" opacity="0.55"/>
    </g>
  </g>
</svg>
