<?xml version="1.0" encoding="UTF-8"?>
<svg width="800" height="600" viewBox="0 0 800 600" fill="none" xmlns="http://www.w3.org/2000/svg">
  <defs>
    <linearGradient id="g" x1="0" y1="0" x2="1" y2="1">
      <stop offset="0" stop-color="#0B0F0E"/>
      <stop offset="1" stop-color="#0F1A17"/>
    </linearGradient>
    <linearGradient id="a" x1="0" y1="0" x2="1" y2="0">
      <stop offset="0" stop-color="#FACC15"/>
      <stop offset="1" stop-color="#F97316"/>
    </linearGradient>
  </defs>
  <rect width="800" height="600" rx="36" fill="url(#g)"/>
  <circle cx="610" cy="160" r="180" fill="#FACC15" opacity="0.12"/>
  <circle cx="230" cy="430" r="240" fill="#F97316" opacity="0.10"/>

  <g transform="translate(150 155)">
    <rect x="0" y="0" width="500" height="290" rx="28" fill="#0B1220" stroke="#334155"/>
    <rect x="22" y="20" width="456" height="64" rx="20" fill="#0F1A17"/>
    <path d="M60 52H440" stroke="url(#a)" stroke-width="8" stroke-linecap="round"/>

    <g transform="translate(22 108)">
      <rect x="0" y="0" width="456" height="160" rx="24" fill="#0F1A17"/>
      <path d="M52 110C80 80 110 64 144 62" stroke="#FACC15" stroke-width="10" stroke-linecap="round" opacity="0.75"/>
      <path d="M188 116C214 88 248 70 292 66" stroke="#22C55E" stroke-width="10" stroke-linecap="round" opacity="0.55"/>
      <path d="M330 122C356 96 390 80 432 76" stroke="#F97316" stroke-width="10" stroke-linecap="round" opacity="0.6"/>

      <circle cx="104" cy="120" r="10" fill="#FACC15"/>
      <circle cx="244" cy="124" r="10" fill="#22C55E"/>
      <circle cx="390" cy="126" r="10" fill="#F97316"/>
    </g>
  </g>
</svg>
